M48
INCH,TZ
T1C0.0315
T2C0.0374
T3C0.0394
T4C0.0472
%
G90
G05
T1
X41000Y-35000
X43000Y-35000
X45000Y-40000
X50000Y-40000
T2
X34500Y-45500
X35484Y-45500
X36469Y-45500
X37453Y-45500
X38437Y-45500
X38531Y-32500
X39421Y-45500
X39516Y-32500
X40406Y-45500
X40500Y-32500
X41390Y-45500
X43500Y-47000
X44484Y-47000
X45469Y-47000
X45547Y-35000
X46453Y-47000
X46531Y-35000
X47437Y-47000
X47516Y-35000
X48421Y-47000
X48500Y-35000
X49406Y-47000
T3
X31000Y-38016
X31000Y-39000
X31000Y-43000
X31984Y-43000
X34551Y-32500
X35535Y-32500
X37000Y-37000
X37000Y-43000
X38000Y-37000
X38000Y-43000
X39000Y-37000
X39000Y-43000
X40000Y-37000
X40000Y-43000
X41000Y-37000
X41000Y-43000
X42000Y-37000
X42000Y-43000
X43000Y-37000
X43000Y-43000
X43516Y-32500
X44000Y-37000
X44000Y-43000
X44500Y-32500
X45000Y-37000
X45000Y-43000
X46000Y-37000
X46000Y-43000
X47000Y-37000
X47000Y-43000
X47516Y-32500
X48000Y-37000
X48000Y-43000
X48500Y-32500
X49000Y-37000
X49000Y-43000
X50000Y-37000
X50000Y-43000
X51000Y-37000
X51000Y-43000
T4
X34000Y-35500
X35000Y-35500
X36000Y-35500
T0
M30
